<svg xmlns="http://www.w3.org/2000/svg" xmlns:xlink="http://www.w3.org/1999/xlink" width="400" height="400" viewBox="0, 0, 400,400"><g><path d="M268.810 9.762 C 268.810 9.893,268.217 10.000,267.493 10.000 C 266.542 10.000,266.137 10.099,266.038 10.357 C 265.938 10.618,265.527 10.714,264.510 10.714 C 263.596 10.714,263.054 10.824,262.928 11.035 C 262.824 11.212,262.310 11.424,261.788 11.506 C 261.265 11.588,260.801 11.765,260.756 11.899 C 260.711 12.033,260.359 12.143,259.973 12.143 C 259.568 12.143,259.213 12.294,259.134 12.500 C 259.058 12.696,258.737 12.857,258.419 12.857 C 258.102 12.857,257.781 13.018,257.705 13.214 C 257.627 13.418,257.272 13.571,256.879 13.571 C 256.500 13.571,255.976 13.786,255.714 14.048 C 255.452 14.310,255.077 14.524,254.881 14.524 C 254.685 14.524,254.524 14.685,254.524 14.881 C 254.524 15.104,254.298 15.238,253.921 15.238 C 253.590 15.238,253.260 15.389,253.190 15.574 C 253.119 15.758,252.801 15.975,252.483 16.054 C 252.165 16.134,251.905 16.305,251.905 16.433 C 251.905 16.562,251.690 16.667,251.429 16.667 C 251.164 16.667,250.952 16.825,250.952 17.024 C 250.952 17.237,250.733 17.381,250.410 17.381 C 250.112 17.381,249.701 17.568,249.497 17.798 C 249.294 18.027,248.680 18.582,248.135 19.030 C 247.589 19.479,247.143 19.977,247.143 20.136 C 247.143 20.295,246.875 20.492,246.548 20.574 C 246.220 20.656,245.952 20.828,245.952 20.957 C 245.952 21.085,245.788 21.190,245.588 21.190 C 245.387 21.190,245.161 21.351,245.086 21.548 C 245.011 21.744,244.800 21.905,244.617 21.905 C 244.435 21.905,244.286 22.065,244.286 22.262 C 244.286 22.458,244.169 22.619,244.026 22.619 C 243.884 22.619,243.028 23.396,242.124 24.345 C 241.220 25.295,240.158 26.404,239.764 26.811 C 239.370 27.218,239.048 27.674,239.048 27.823 C 239.048 27.973,238.943 28.095,238.814 28.095 C 238.686 28.095,238.513 28.363,238.431 28.690 C 238.349 29.018,238.159 29.288,238.010 29.290 C 237.722 29.294,236.667 30.312,236.667 30.586 C 236.667 30.675,236.506 30.909,236.310 31.105 C 236.113 31.302,235.952 31.669,235.952 31.922 C 235.952 32.174,235.792 32.381,235.595 32.381 C 235.399 32.381,235.238 32.542,235.238 32.738 C 235.238 32.935,235.077 33.095,234.881 33.095 C 234.685 33.095,234.524 33.244,234.524 33.427 C 234.524 33.609,234.363 33.820,234.167 33.896 C 233.970 33.971,233.810 34.304,233.810 34.635 C 233.810 35.012,233.676 35.238,233.452 35.238 C 233.254 35.238,233.095 35.450,233.095 35.714 C 233.095 35.979,232.937 36.190,232.738 36.190 C 232.542 36.190,232.381 36.393,232.381 36.641 C 232.381 36.890,232.058 37.438,231.664 37.860 C 231.270 38.282,230.885 38.875,230.809 39.177 C 230.733 39.480,230.520 39.785,230.336 39.856 C 230.151 39.927,230.000 40.256,230.000 40.588 C 230.000 40.965,229.866 41.190,229.643 41.190 C 229.421 41.190,229.286 41.415,229.286 41.786 C 229.286 42.113,229.181 42.381,229.052 42.381 C 228.924 42.381,228.753 42.641,228.674 42.959 C 228.594 43.277,228.377 43.595,228.193 43.666 C 228.008 43.737,227.857 44.066,227.857 44.397 C 227.857 44.774,227.723 45.000,227.500 45.000 C 227.262 45.000,227.143 45.238,227.143 45.714 C 227.143 46.190,227.024 46.429,226.786 46.429 C 226.549 46.429,226.429 46.665,226.429 47.127 C 226.429 47.616,226.286 47.870,225.952 47.976 C 225.657 48.070,225.476 48.336,225.476 48.677 C 225.476 48.980,225.315 49.361,225.119 49.524 C 224.923 49.687,224.762 50.063,224.762 50.361 C 224.762 50.658,224.601 50.963,224.405 51.038 C 224.208 51.114,224.048 51.435,224.048 51.753 C 224.048 52.070,223.887 52.392,223.690 52.467 C 223.494 52.542,223.333 52.883,223.333 53.224 C 223.333 53.565,223.173 54.004,222.976 54.201 C 222.780 54.397,222.619 54.925,222.619 55.374 C 222.619 55.941,222.510 56.190,222.262 56.190 C 222.027 56.190,221.905 56.426,221.905 56.879 C 221.905 57.272,221.751 57.627,221.548 57.705 C 221.314 57.795,221.190 58.166,221.190 58.777 C 221.190 59.387,221.067 59.758,220.833 59.848 C 220.637 59.923,220.476 60.203,220.476 60.469 C 220.476 60.735,220.262 61.167,220.000 61.429 C 219.711 61.718,219.524 62.222,219.524 62.713 C 219.524 63.211,219.387 63.573,219.167 63.658 C 218.970 63.733,218.810 64.020,218.810 64.295 C 218.810 64.571,218.649 64.957,218.452 65.153 C 218.256 65.349,218.095 65.866,218.095 66.301 C 218.095 66.784,217.956 67.145,217.738 67.229 C 217.495 67.322,217.381 67.703,217.381 68.419 C 217.381 69.136,217.267 69.517,217.024 69.610 C 216.818 69.689,216.667 70.045,216.667 70.449 C 216.667 70.835,216.553 71.189,216.413 71.235 C 216.274 71.282,216.096 71.798,216.017 72.382 C 215.939 72.967,215.731 73.588,215.556 73.763 C 215.381 73.938,215.238 74.438,215.238 74.872 C 215.238 75.356,215.099 75.717,214.881 75.800 C 214.657 75.886,214.524 76.250,214.524 76.778 C 214.524 77.302,214.344 77.799,214.048 78.095 C 213.763 78.380,213.571 78.889,213.571 79.359 C 213.571 79.793,213.414 80.355,213.222 80.609 C 213.030 80.863,212.869 81.427,212.865 81.862 C 212.861 82.297,212.696 82.814,212.500 83.010 C 212.304 83.207,212.143 83.777,212.143 84.277 C 212.143 84.866,212.017 85.235,211.786 85.324 C 211.542 85.418,211.429 85.799,211.429 86.520 C 211.429 87.103,211.311 87.619,211.167 87.667 C 211.023 87.714,210.847 88.286,210.776 88.936 C 210.705 89.587,210.501 90.205,210.324 90.309 C 210.130 90.423,210.000 90.915,210.000 91.534 C 210.000 92.234,209.884 92.612,209.643 92.705 C 209.386 92.804,209.286 93.205,209.286 94.134 C 209.286 95.062,209.185 95.464,208.929 95.562 C 208.667 95.663,208.571 96.075,208.571 97.108 C 208.571 98.316,208.504 98.534,208.095 98.640 C 207.692 98.746,207.619 98.965,207.619 100.071 C 207.619 101.013,207.519 101.416,207.262 101.515 C 207.011 101.611,206.905 102.002,206.905 102.830 C 206.905 103.492,206.787 104.047,206.636 104.097 C 206.489 104.147,206.312 104.768,206.244 105.479 C 206.176 106.190,205.975 106.916,205.798 107.093 C 205.617 107.275,205.476 107.916,205.476 108.563 C 205.476 109.364,205.368 109.752,205.119 109.848 C 204.866 109.945,204.762 110.340,204.762 111.200 C 204.762 111.963,204.629 112.548,204.405 112.772 C 204.175 113.002,204.048 113.590,204.048 114.422 C 204.048 115.412,203.964 115.714,203.690 115.714 C 203.413 115.714,203.333 116.029,203.333 117.117 C 203.333 118.145,203.238 118.557,202.976 118.658 C 202.714 118.758,202.619 119.171,202.619 120.203 C 202.619 121.411,202.551 121.629,202.143 121.736 C 201.758 121.836,201.667 122.060,201.667 122.908 C 201.667 123.485,201.509 124.165,201.317 124.419 C 201.125 124.673,200.964 125.344,200.960 125.910 C 200.956 126.498,200.799 127.092,200.595 127.296 C 200.384 127.508,200.238 128.090,200.238 128.724 C 200.238 129.359,200.093 129.941,199.881 130.153 C 199.662 130.372,199.524 130.955,199.524 131.658 C 199.524 132.459,199.416 132.848,199.167 132.943 C 198.910 133.042,198.810 133.443,198.810 134.372 C 198.810 135.300,198.709 135.702,198.452 135.800 C 198.256 135.876,198.095 136.209,198.095 136.540 L 198.095 137.143 167.731 137.143 C 140.959 137.143,137.350 137.185,137.229 137.500 C 137.136 137.743,136.755 137.857,136.038 137.857 C 135.322 137.857,134.941 137.971,134.848 138.214 C 134.773 138.411,134.462 138.571,134.157 138.571 C 133.813 138.571,133.546 138.751,133.452 139.048 C 133.355 139.354,133.092 139.524,132.715 139.524 C 132.392 139.524,132.066 139.685,131.991 139.881 C 131.915 140.077,131.705 140.238,131.522 140.238 C 131.340 140.238,131.190 140.399,131.190 140.595 C 131.190 140.792,131.072 140.952,130.927 140.952 C 130.598 140.952,128.095 143.432,128.095 143.758 C 128.095 143.889,127.935 144.058,127.738 144.134 C 127.542 144.209,127.381 144.531,127.381 144.848 C 127.381 145.165,127.220 145.487,127.024 145.562 C 126.827 145.638,126.667 145.971,126.667 146.302 C 126.667 146.679,126.533 146.905,126.310 146.905 C 126.046 146.905,125.952 147.180,125.952 147.951 C 125.952 148.661,125.838 149.041,125.595 149.134 C 125.295 149.249,125.238 150.007,125.238 153.921 C 125.238 157.896,125.290 158.571,125.595 158.571 C 125.860 158.571,125.952 158.850,125.952 159.650 C 125.952 160.390,126.065 160.772,126.310 160.866 C 126.506 160.942,126.667 161.263,126.667 161.581 C 126.667 161.898,126.827 162.219,127.024 162.295 C 127.220 162.370,127.381 162.692,127.381 163.009 C 127.381 163.327,127.542 163.648,127.738 163.723 C 127.935 163.799,128.095 164.010,128.095 164.192 C 128.095 164.375,128.256 164.524,128.452 164.524 C 128.649 164.524,128.810 164.685,128.810 164.881 C 128.810 165.077,128.970 165.238,129.167 165.238 C 129.363 165.238,129.526 165.372,129.528 165.536 C 129.532 165.862,130.539 166.899,130.867 166.915 C 130.979 166.920,131.334 167.242,131.655 167.629 C 131.977 168.017,132.474 168.333,132.761 168.333 C 133.048 168.333,133.344 168.494,133.419 168.690 C 133.495 168.887,133.816 169.048,134.134 169.048 C 134.451 169.048,134.773 169.208,134.848 169.405 C 134.942 169.650,135.325 169.762,136.064 169.762 C 136.864 169.762,137.143 169.854,137.143 170.119 C 137.143 170.434,140.225 170.476,163.452 170.476 L 189.762 170.476 189.762 171.052 C 189.762 171.368,189.634 171.670,189.478 171.721 C 189.310 171.778,189.153 172.484,189.093 173.468 C 189.027 174.530,188.873 175.187,188.662 175.309 C 188.447 175.434,188.333 175.941,188.333 176.772 C 188.333 177.683,188.232 178.083,187.976 178.181 C 187.714 178.282,187.619 178.695,187.619 179.729 C 187.619 180.763,187.524 181.176,187.262 181.277 C 187.005 181.375,186.905 181.777,186.905 182.705 C 186.905 183.634,186.804 184.035,186.548 184.134 C 186.285 184.235,186.190 184.650,186.190 185.707 C 186.190 186.825,186.111 187.143,185.833 187.143 C 185.556 187.143,185.476 187.457,185.476 188.546 C 185.476 189.574,185.381 189.986,185.119 190.086 C 184.861 190.185,184.762 190.589,184.762 191.540 C 184.762 192.540,184.647 192.972,184.286 193.333 C 183.939 193.680,183.810 194.127,183.810 194.980 C 183.810 195.651,183.693 196.190,183.535 196.242 C 183.385 196.292,183.210 196.971,183.146 197.750 C 183.083 198.529,182.924 199.236,182.793 199.320 C 182.661 199.404,182.500 200.047,182.434 200.748 C 182.369 201.450,182.200 202.098,182.059 202.188 C 181.918 202.279,181.760 203.109,181.708 204.034 C 181.638 205.262,181.524 205.714,181.283 205.714 C 181.038 205.714,180.952 206.080,180.952 207.117 C 180.952 208.145,180.857 208.557,180.595 208.658 C 180.332 208.758,180.238 209.174,180.238 210.231 C 180.238 211.348,180.159 211.667,179.881 211.667 C 179.604 211.667,179.524 211.981,179.524 213.070 C 179.524 214.097,179.428 214.510,179.167 214.610 C 178.909 214.709,178.810 215.113,178.810 216.064 C 178.810 217.063,178.695 217.496,178.333 217.857 C 177.986 218.204,177.857 218.651,177.857 219.504 C 177.857 220.148,177.739 220.714,177.596 220.762 C 177.452 220.810,177.282 221.381,177.217 222.032 C 177.153 222.682,176.949 223.552,176.765 223.965 C 176.580 224.377,176.429 225.145,176.429 225.671 C 176.429 226.197,176.305 226.668,176.154 226.718 C 176.004 226.769,175.829 227.447,175.765 228.226 C 175.702 229.005,175.538 229.715,175.401 229.803 C 175.264 229.890,175.105 230.640,175.046 231.469 C 174.981 232.401,174.815 233.049,174.613 233.167 C 174.393 233.294,174.286 233.823,174.286 234.774 C 174.286 235.874,174.206 236.190,173.929 236.190 C 173.652 236.190,173.571 236.505,173.571 237.594 C 173.571 238.621,173.476 239.033,173.214 239.134 C 172.952 239.234,172.857 239.648,172.857 240.691 C 172.857 241.902,172.787 242.133,172.381 242.262 C 171.987 242.387,171.903 242.626,171.897 243.647 C 171.893 244.352,171.740 245.079,171.540 245.343 C 171.348 245.597,171.187 246.294,171.183 246.891 C 171.179 247.488,171.018 248.184,170.826 248.438 C 170.633 248.693,170.476 249.370,170.476 249.943 C 170.476 250.553,170.328 251.135,170.119 251.344 C 169.897 251.566,169.762 252.150,169.762 252.891 C 169.762 253.632,169.627 254.217,169.405 254.439 C 169.186 254.658,169.048 255.242,169.048 255.950 C 169.048 256.608,168.930 257.142,168.774 257.195 C 168.623 257.245,168.447 257.919,168.383 258.694 C 168.318 259.468,168.120 260.247,167.943 260.425 C 167.744 260.623,167.619 261.284,167.619 262.134 C 167.619 263.147,167.523 263.557,167.262 263.658 C 167.000 263.758,166.905 264.172,166.905 265.215 C 166.905 266.425,166.835 266.657,166.429 266.786 C 166.031 266.912,165.952 267.146,165.952 268.201 C 165.952 269.035,165.831 269.567,165.595 269.762 C 165.366 269.952,165.238 270.480,165.238 271.237 C 165.238 271.967,165.102 272.551,164.881 272.772 C 164.653 273.000,164.524 273.587,164.524 274.396 C 164.524 275.303,164.422 275.702,164.167 275.800 C 163.910 275.899,163.810 276.301,163.810 277.229 C 163.810 278.157,163.709 278.559,163.452 278.658 C 163.190 278.758,163.095 279.172,163.095 280.211 C 163.095 281.067,162.987 281.663,162.821 281.718 C 162.670 281.769,162.496 282.447,162.433 283.226 C 162.365 284.069,162.187 284.720,161.993 284.833 C 161.779 284.958,161.667 285.477,161.667 286.338 C 161.667 287.190,161.541 287.779,161.310 288.010 C 161.074 288.246,160.952 288.839,160.952 289.751 C 160.952 290.935,160.883 291.153,160.476 291.259 C 160.067 291.366,160.000 291.584,160.000 292.809 C 160.000 293.857,159.905 294.271,159.643 294.372 C 159.390 294.469,159.286 294.864,159.286 295.724 C 159.286 296.486,159.153 297.072,158.929 297.296 C 158.701 297.524,158.571 298.111,158.571 298.920 C 158.571 299.827,158.470 300.226,158.214 300.324 C 157.958 300.423,157.857 300.824,157.857 301.753 C 157.857 302.681,157.757 303.083,157.500 303.181 C 157.238 303.282,157.143 303.695,157.143 304.729 C 157.143 305.763,157.048 306.176,156.786 306.277 C 156.529 306.375,156.429 306.777,156.429 307.705 C 156.429 308.634,156.328 309.035,156.071 309.134 C 155.810 309.234,155.714 309.647,155.714 310.681 C 155.714 311.716,155.619 312.128,155.357 312.229 C 155.099 312.328,155.000 312.733,155.000 313.693 C 155.000 314.691,154.882 315.147,154.524 315.531 C 154.190 315.889,154.048 316.371,154.048 317.142 C 154.048 317.747,153.890 318.450,153.698 318.704 C 153.499 318.968,153.345 319.694,153.341 320.391 C 153.336 321.255,153.228 321.656,152.976 321.753 C 152.714 321.853,152.619 322.266,152.619 323.300 C 152.619 324.335,152.524 324.748,152.262 324.848 C 152.005 324.947,151.905 325.348,151.905 326.277 C 151.905 327.205,151.804 327.607,151.548 327.705 C 151.286 327.806,151.190 328.219,151.190 329.253 C 151.190 330.287,151.095 330.700,150.833 330.800 C 150.570 330.901,150.476 331.317,150.476 332.373 C 150.476 333.491,150.397 333.810,150.119 333.810 C 149.841 333.810,149.762 334.127,149.762 335.238 C 149.762 336.349,149.683 336.667,149.405 336.667 C 149.142 336.667,149.048 336.941,149.048 337.710 C 149.048 338.554,148.956 338.778,148.571 338.879 C 148.257 338.961,148.095 339.203,148.095 339.591 C 148.095 339.915,147.935 340.313,147.738 340.476 C 147.542 340.639,147.381 341.016,147.381 341.313 C 147.381 341.611,147.220 341.915,147.024 341.991 C 146.827 342.066,146.667 342.388,146.667 342.705 C 146.667 343.023,146.506 343.344,146.310 343.419 C 146.113 343.495,145.952 343.816,145.952 344.134 C 145.952 344.451,145.792 344.773,145.595 344.848 C 145.399 344.923,145.238 345.149,145.238 345.350 C 145.238 345.550,145.133 345.714,145.005 345.714 C 144.876 345.714,144.706 345.974,144.626 346.292 C 144.546 346.610,144.330 346.928,144.145 346.999 C 143.961 347.070,143.810 347.346,143.810 347.612 C 143.810 347.878,143.704 348.095,143.576 348.095 C 143.448 348.095,143.275 348.363,143.193 348.690 C 143.111 349.018,142.937 349.286,142.808 349.286 C 142.484 349.286,138.571 353.222,138.571 353.548 C 138.571 353.692,138.411 353.810,138.214 353.810 C 138.018 353.810,137.857 353.970,137.857 354.167 C 137.857 354.406,137.618 354.524,137.135 354.524 C 136.713 354.524,136.357 354.672,136.277 354.881 C 136.201 355.077,135.880 355.238,135.562 355.238 C 135.245 355.238,134.923 355.399,134.848 355.595 C 134.773 355.792,134.451 355.952,134.134 355.952 C 133.816 355.952,133.495 356.113,133.419 356.310 C 133.328 356.549,132.952 356.667,132.282 356.667 C 131.732 356.667,131.074 356.824,130.819 357.016 C 130.258 357.441,127.229 357.521,127.094 357.115 C 127.044 356.966,126.221 356.794,125.229 356.724 C 124.252 356.656,123.390 356.504,123.314 356.387 C 123.238 356.270,122.756 356.108,122.243 356.027 C 121.729 355.946,121.224 355.736,121.119 355.559 C 121.014 355.383,120.613 355.238,120.226 355.238 C 119.761 355.238,119.524 355.118,119.524 354.881 C 119.524 354.663,119.302 354.524,118.954 354.524 C 118.641 354.524,118.323 354.363,118.247 354.167 C 118.172 353.970,117.846 353.810,117.524 353.810 C 117.171 353.810,116.883 353.641,116.803 353.387 C 116.729 353.155,116.187 352.753,115.599 352.494 C 115.010 352.236,114.527 351.890,114.526 351.726 C 114.525 351.563,114.363 351.429,114.167 351.429 C 113.970 351.429,113.810 351.268,113.810 351.071 C 113.810 350.875,113.707 350.714,113.583 350.714 C 113.287 350.714,110.952 348.379,110.952 348.084 C 110.952 347.959,110.792 347.857,110.595 347.857 C 110.399 347.857,110.238 347.697,110.238 347.502 C 110.238 347.307,110.024 347.013,109.762 346.850 C 109.500 346.686,109.286 346.360,109.286 346.126 C 109.286 345.891,109.125 345.638,108.929 345.562 C 108.732 345.487,108.571 345.276,108.571 345.094 C 108.571 344.911,108.411 344.762,108.214 344.762 C 108.018 344.762,107.857 344.601,107.857 344.405 C 107.857 344.208,107.696 344.048,107.500 344.048 C 107.304 344.048,107.143 343.841,107.143 343.588 C 107.143 343.336,106.982 342.969,106.786 342.772 C 106.589 342.576,106.429 342.300,106.429 342.160 C 106.429 342.020,106.268 341.905,106.071 341.905 C 105.835 341.905,105.714 341.668,105.714 341.202 C 105.714 340.816,105.580 340.414,105.417 340.309 C 105.253 340.205,104.906 339.700,104.645 339.189 C 104.384 338.677,103.982 338.209,103.752 338.149 C 103.475 338.077,103.333 337.808,103.333 337.353 C 103.333 336.902,103.211 336.667,102.976 336.667 C 102.726 336.667,102.619 336.415,102.619 335.826 C 102.619 335.298,102.486 334.934,102.262 334.848 C 102.065 334.773,101.905 334.462,101.905 334.158 C 101.905 333.854,101.744 333.445,101.548 333.248 C 101.351 333.052,101.190 332.621,101.190 332.291 C 101.190 331.961,101.046 331.605,100.869 331.500 C 100.693 331.395,100.481 330.882,100.399 330.359 C 100.317 329.836,100.140 329.372,100.006 329.327 C 99.872 329.283,99.762 328.930,99.762 328.544 C 99.762 328.140,99.610 327.784,99.405 327.705 C 99.208 327.630,99.048 327.321,99.048 327.018 C 99.048 326.358,97.926 324.048,97.607 324.048 C 97.482 324.048,97.381 323.833,97.381 323.571 C 97.381 323.307,97.222 323.095,97.024 323.095 C 96.802 323.095,96.667 322.870,96.667 322.500 C 96.667 322.130,96.532 321.905,96.310 321.905 C 96.113 321.905,95.952 321.807,95.952 321.687 C 95.952 321.221,94.120 319.524,93.617 319.524 C 93.312 319.524,93.095 319.376,93.095 319.167 C 93.095 318.970,92.946 318.810,92.764 318.810 C 92.581 318.810,92.370 318.649,92.295 318.452 C 92.216 318.248,91.861 318.095,91.464 318.095 C 90.970 318.095,90.734 317.958,90.645 317.619 C 90.556 317.276,90.321 317.143,89.804 317.143 C 89.410 317.143,89.044 317.014,88.992 316.855 C 88.933 316.679,88.233 316.531,87.186 316.471 C 86.246 316.418,85.476 316.289,85.476 316.184 C 85.476 315.760,81.911 315.635,81.460 316.043 C 81.156 316.318,80.575 316.429,79.438 316.429 C 78.239 316.429,77.808 316.517,77.705 316.786 C 77.627 316.989,77.272 317.143,76.881 317.143 C 76.452 317.143,76.083 317.322,75.897 317.619 C 75.734 317.881,75.358 318.095,75.062 318.095 C 74.742 318.095,74.524 318.240,74.524 318.452 C 74.524 318.676,74.298 318.810,73.921 318.810 C 73.590 318.810,73.257 318.970,73.181 319.167 C 73.106 319.363,72.895 319.524,72.713 319.524 C 72.530 319.524,72.381 319.685,72.381 319.881 C 72.381 320.077,72.220 320.238,72.024 320.238 C 71.827 320.238,71.667 320.399,71.667 320.595 C 71.667 320.792,71.547 320.952,71.401 320.952 C 71.054 320.952,69.286 322.721,69.286 323.067 C 69.286 323.214,69.187 323.333,69.067 323.333 C 68.946 323.333,68.777 323.655,68.690 324.048 C 68.604 324.440,68.381 324.762,68.195 324.762 C 67.981 324.762,67.857 325.014,67.857 325.451 C 67.857 325.843,67.704 326.198,67.500 326.277 C 67.255 326.370,67.143 326.753,67.143 327.493 C 67.143 328.086,67.036 328.571,66.905 328.571 C 66.755 328.571,66.667 330.159,66.667 332.857 C 66.667 335.556,66.755 337.143,66.905 337.143 C 67.036 337.143,67.143 337.628,67.143 338.222 C 67.143 338.961,67.255 339.344,67.500 339.438 C 67.734 339.527,67.857 339.898,67.857 340.509 C 67.857 341.120,67.981 341.491,68.214 341.581 C 68.448 341.670,68.571 342.041,68.571 342.652 C 68.571 343.263,68.695 343.634,68.929 343.723 C 69.143 343.806,69.286 344.165,69.286 344.623 C 69.286 345.042,69.443 345.593,69.635 345.847 C 69.828 346.102,69.988 346.554,69.992 346.853 C 69.997 347.151,70.161 347.458,70.357 347.533 C 70.554 347.608,70.714 347.936,70.714 348.262 C 70.714 348.654,70.875 348.896,71.190 348.979 C 71.529 349.067,71.667 349.303,71.667 349.797 C 71.667 350.194,71.819 350.550,72.024 350.628 C 72.220 350.704,72.381 351.025,72.381 351.342 C 72.381 351.660,72.542 351.981,72.738 352.057 C 72.939 352.134,73.095 352.488,73.095 352.866 C 73.095 353.235,73.256 353.698,73.452 353.895 C 73.649 354.091,73.810 354.420,73.810 354.626 C 73.810 354.832,73.970 355.000,74.167 355.000 C 74.383 355.000,74.524 355.221,74.524 355.559 C 74.524 355.866,74.738 356.365,75.000 356.667 C 75.262 356.969,75.476 357.360,75.476 357.536 C 75.476 357.713,75.583 357.857,75.714 357.857 C 75.845 357.857,75.952 358.021,75.952 358.222 C 75.952 358.422,76.113 358.648,76.310 358.723 C 76.506 358.799,76.667 359.062,76.667 359.309 C 76.667 359.556,76.881 359.892,77.143 360.055 C 77.405 360.219,77.619 360.488,77.619 360.653 C 77.619 360.817,77.780 360.952,77.976 360.952 C 78.215 360.952,78.333 361.191,78.333 361.674 C 78.333 362.076,78.482 362.453,78.669 362.525 C 78.854 362.596,79.070 362.914,79.150 363.232 C 79.230 363.549,79.400 363.810,79.528 363.810 C 79.657 363.810,79.762 363.974,79.762 364.174 C 79.762 364.375,79.923 364.600,80.119 364.676 C 80.315 364.751,80.476 364.962,80.476 365.145 C 80.476 365.327,80.625 365.476,80.808 365.476 C 80.990 365.476,81.204 365.737,81.284 366.055 C 81.364 366.373,81.911 367.136,82.500 367.751 C 83.089 368.366,83.571 368.963,83.571 369.077 C 83.571 369.192,83.732 369.286,83.929 369.286 C 84.125 369.286,84.286 369.446,84.286 369.643 C 84.286 369.839,84.435 370.000,84.617 370.000 C 84.799 370.000,85.016 370.268,85.098 370.595 C 85.180 370.923,85.352 371.190,85.481 371.190 C 85.609 371.190,85.714 371.309,85.714 371.455 C 85.714 371.820,86.720 372.848,87.083 372.853 C 87.247 372.855,87.381 373.018,87.381 373.214 C 87.381 373.411,87.542 373.571,87.738 373.571 C 87.935 373.571,88.095 373.679,88.095 373.810 C 88.095 374.118,88.977 375.000,89.286 375.000 C 89.417 375.000,89.524 375.161,89.524 375.357 C 89.524 375.554,89.631 375.714,89.762 375.714 C 89.893 375.714,90.214 375.929,90.476 376.190 C 90.738 376.452,91.113 376.667,91.310 376.667 C 91.506 376.667,91.667 376.827,91.667 377.024 C 91.667 377.220,91.827 377.381,92.024 377.381 C 92.220 377.381,92.381 377.542,92.381 377.738 C 92.381 377.935,92.515 378.100,92.679 378.105 C 92.842 378.111,93.239 378.432,93.560 378.820 C 93.881 379.207,94.313 379.524,94.520 379.524 C 94.726 379.524,95.049 379.738,95.238 380.000 C 95.427 380.262,95.707 380.476,95.860 380.476 C 96.014 380.476,96.201 380.637,96.277 380.833 C 96.352 381.030,96.578 381.190,96.778 381.190 C 96.979 381.190,97.143 381.296,97.143 381.424 C 97.143 381.552,97.403 381.723,97.721 381.803 C 98.039 381.882,98.357 382.099,98.428 382.283 C 98.499 382.468,98.721 382.619,98.921 382.619 C 99.122 382.619,99.286 382.726,99.286 382.857 C 99.286 382.988,99.432 383.095,99.611 383.095 C 99.790 383.095,100.208 383.310,100.541 383.571 C 100.874 383.833,101.371 384.048,101.645 384.048 C 101.929 384.048,102.143 384.201,102.143 384.405 C 102.143 384.643,102.381 384.762,102.857 384.762 C 103.333 384.762,103.571 384.881,103.571 385.119 C 103.571 385.355,103.808 385.476,104.270 385.476 C 104.759 385.476,105.013 385.619,105.119 385.952 C 105.225 386.286,105.479 386.429,105.968 386.429 C 106.352 386.429,106.667 386.531,106.667 386.656 C 106.667 386.781,107.042 386.954,107.500 387.040 C 107.958 387.126,108.333 387.290,108.333 387.405 C 108.333 387.519,108.771 387.683,109.306 387.769 C 109.841 387.855,110.335 388.070,110.403 388.248 C 110.482 388.454,110.914 388.571,111.590 388.571 C 112.217 388.571,112.799 388.718,113.010 388.929 C 113.217 389.136,113.799 389.286,114.396 389.286 C 115.091 389.286,115.470 389.402,115.562 389.643 C 115.668 389.919,116.131 390.000,117.612 390.000 C 118.728 390.000,119.524 390.099,119.524 390.238 C 119.524 390.393,122.659 390.476,128.452 390.476 C 133.516 390.476,137.381 390.384,137.381 390.264 C 137.381 390.147,138.203 390.011,139.209 389.960 C 140.365 389.901,141.072 389.761,141.133 389.577 C 141.190 389.406,141.667 389.286,142.289 389.286 C 143.011 389.286,143.392 389.172,143.485 388.929 C 143.579 388.686,143.959 388.571,144.676 388.571 C 145.353 388.571,145.774 388.454,145.856 388.242 C 145.925 388.061,146.404 387.846,146.919 387.763 C 147.435 387.681,147.857 387.508,147.857 387.378 C 147.857 387.249,148.182 387.143,148.579 387.143 C 149.001 387.143,149.358 386.994,149.438 386.786 C 149.513 386.589,149.841 386.429,150.167 386.429 C 150.559 386.429,150.801 386.268,150.883 385.952 C 150.972 385.614,151.208 385.476,151.702 385.476 C 152.099 385.476,152.454 385.323,152.533 385.119 C 152.608 384.923,152.930 384.762,153.247 384.762 C 153.565 384.762,153.886 384.601,153.962 384.405 C 154.037 384.208,154.248 384.048,154.430 384.048 C 154.613 384.048,154.762 383.887,154.762 383.690 C 154.762 383.467,154.988 383.333,155.365 383.333 C 155.696 383.333,156.029 383.173,156.104 382.976 C 156.180 382.780,156.391 382.619,156.573 382.619 C 156.756 382.619,156.905 382.458,156.905 382.262 C 156.905 382.050,157.123 381.905,157.440 381.904 C 158.005 381.904,160.000 380.296,160.000 379.841 C 160.000 379.695,160.268 379.508,160.595 379.426 C 160.923 379.344,161.190 379.172,161.190 379.043 C 161.190 378.915,161.405 378.810,161.667 378.810 C 161.929 378.810,162.148 378.676,162.154 378.512 C 162.160 378.348,162.438 378.000,162.772 377.738 C 163.977 376.794,165.952 374.838,165.952 374.590 C 165.952 374.451,166.113 374.275,166.310 374.200 C 166.506 374.124,166.667 373.898,166.667 373.698 C 166.667 373.497,166.772 373.333,166.900 373.333 C 167.029 373.333,167.201 373.065,167.283 372.738 C 167.365 372.411,167.582 372.143,167.764 372.143 C 167.946 372.143,168.095 371.982,168.095 371.786 C 168.095 371.589,168.256 371.429,168.452 371.429 C 168.649 371.429,168.810 371.331,168.810 371.211 C 168.810 371.091,169.158 370.621,169.583 370.166 C 170.684 368.989,171.190 368.284,171.190 367.928 C 171.190 367.758,171.351 367.619,171.548 367.619 C 171.744 367.619,171.905 367.458,171.905 367.262 C 171.905 367.065,172.003 366.905,172.124 366.905 C 172.244 366.905,172.412 366.592,172.496 366.210 C 172.580 365.828,172.802 365.457,172.991 365.385 C 173.179 365.312,173.333 365.089,173.333 364.888 C 173.333 364.688,173.438 364.524,173.567 364.524 C 173.695 364.524,173.866 364.264,173.946 363.946 C 174.025 363.628,174.242 363.310,174.426 363.239 C 174.613 363.167,174.762 362.790,174.762 362.388 C 174.762 361.825,174.867 361.667,175.238 361.667 C 175.503 361.667,175.714 361.508,175.714 361.310 C 175.714 361.113,175.813 360.952,175.933 360.952 C 176.054 360.952,176.223 360.631,176.310 360.238 C 176.396 359.845,176.557 359.524,176.667 359.524 C 176.777 359.524,176.942 359.182,177.034 358.763 C 177.126 358.345,177.349 357.856,177.529 357.675 C 177.709 357.495,177.857 357.140,177.857 356.888 C 177.857 356.635,177.956 356.429,178.076 356.429 C 178.197 356.429,178.371 356.086,178.462 355.668 C 178.554 355.250,178.777 354.760,178.958 354.580 C 179.138 354.399,179.286 353.938,179.286 353.554 C 179.286 353.093,179.407 352.857,179.643 352.857 C 179.883 352.857,180.000 352.617,180.000 352.126 C 180.000 351.724,180.161 351.234,180.357 351.037 C 180.554 350.841,180.714 350.366,180.714 349.983 C 180.714 349.599,180.929 349.071,181.190 348.810 C 181.452 348.548,181.667 348.021,181.667 347.639 C 181.667 347.257,181.790 346.903,181.941 346.853 C 182.092 346.803,182.266 346.124,182.329 345.345 C 182.397 344.502,182.575 343.852,182.769 343.738 C 182.981 343.615,183.095 343.101,183.095 342.276 C 183.095 341.364,183.197 340.964,183.452 340.866 C 183.714 340.766,183.810 340.353,183.810 339.319 C 183.810 338.284,183.905 337.872,184.167 337.771 C 184.425 337.672,184.524 337.266,184.524 336.300 C 184.524 335.432,184.648 334.841,184.881 334.609 C 185.100 334.390,185.238 333.807,185.238 333.104 C 185.238 332.303,185.346 331.914,185.595 331.819 C 185.854 331.719,185.952 331.314,185.952 330.348 C 185.952 329.479,186.077 328.889,186.310 328.656 C 186.531 328.435,186.667 327.850,186.667 327.116 C 186.667 326.262,186.799 325.790,187.143 325.421 C 187.493 325.046,187.619 324.581,187.619 323.671 C 187.619 322.789,187.722 322.392,187.976 322.295 C 188.238 322.194,188.333 321.781,188.333 320.747 C 188.333 319.713,188.429 319.300,188.690 319.200 C 188.947 319.101,189.048 318.699,189.048 317.771 C 189.048 316.843,189.148 316.441,189.405 316.342 C 189.667 316.242,189.762 315.829,189.762 314.795 C 189.762 313.761,189.857 313.348,190.119 313.247 C 190.381 313.147,190.476 312.734,190.476 311.700 C 190.476 310.665,190.571 310.252,190.833 310.152 C 191.090 310.053,191.190 309.652,191.190 308.723 C 191.190 307.795,191.291 307.393,191.548 307.295 C 191.809 307.194,191.905 306.781,191.905 305.747 C 191.905 304.713,192.000 304.300,192.262 304.200 C 192.520 304.100,192.619 303.695,192.619 302.736 C 192.619 301.738,192.737 301.282,193.095 300.898 C 193.412 300.558,193.571 300.057,193.571 299.405 C 193.571 298.866,193.729 298.216,193.921 297.962 C 194.130 297.686,194.274 296.958,194.278 296.156 C 194.284 295.187,194.385 294.775,194.643 294.676 C 194.900 294.577,195.000 294.176,195.000 293.247 C 195.000 292.319,195.100 291.917,195.357 291.819 C 195.619 291.718,195.714 291.305,195.714 290.271 C 195.714 289.237,195.810 288.824,196.071 288.723 C 196.328 288.625,196.429 288.223,196.429 287.295 C 196.429 286.366,196.529 285.965,196.786 285.866 C 197.048 285.766,197.143 285.353,197.143 284.319 C 197.143 283.284,197.238 282.872,197.500 282.771 C 197.763 282.670,197.857 282.255,197.857 281.198 C 197.857 280.080,197.936 279.762,198.214 279.762 C 198.490 279.762,198.571 279.454,198.571 278.419 C 198.571 277.452,198.680 276.997,198.960 276.792 C 199.202 276.615,199.393 276.024,199.469 275.219 C 199.536 274.509,199.699 273.858,199.833 273.772 C 199.967 273.686,200.127 272.989,200.189 272.224 C 200.251 271.459,200.412 270.763,200.546 270.677 C 200.681 270.591,200.842 269.898,200.905 269.138 C 200.968 268.378,201.165 267.610,201.343 267.432 C 201.542 267.234,201.667 266.573,201.667 265.723 C 201.667 264.710,201.763 264.300,202.024 264.200 C 202.277 264.103,202.381 263.708,202.381 262.848 C 202.381 262.085,202.514 261.500,202.738 261.276 C 202.966 261.048,203.095 260.460,203.095 259.651 C 203.095 258.745,203.197 258.345,203.452 258.247 C 203.709 258.149,203.810 257.747,203.810 256.819 C 203.810 255.890,203.910 255.489,204.167 255.390 C 204.425 255.291,204.524 254.887,204.524 253.936 C 204.524 252.937,204.639 252.504,205.000 252.143 C 205.347 251.796,205.476 251.349,205.476 250.496 C 205.476 249.825,205.593 249.286,205.750 249.234 C 205.901 249.184,206.076 248.505,206.139 247.726 C 206.203 246.947,206.362 246.241,206.493 246.156 C 206.624 246.072,206.786 245.429,206.851 244.728 C 206.917 244.026,207.080 243.382,207.214 243.296 C 207.348 243.210,207.509 242.517,207.572 241.757 C 207.635 240.997,207.832 240.229,208.010 240.051 C 208.215 239.846,208.333 239.170,208.333 238.197 C 208.333 236.995,208.410 236.667,208.690 236.667 C 208.968 236.667,209.048 236.349,209.048 235.238 C 209.048 234.127,209.127 233.810,209.405 233.810 C 209.686 233.810,209.762 233.479,209.762 232.262 C 209.762 231.045,209.838 230.714,210.119 230.714 C 210.395 230.714,210.476 230.403,210.476 229.343 C 210.476 228.230,210.566 227.916,210.952 227.674 C 211.327 227.441,211.429 227.119,211.429 226.171 C 211.429 225.417,211.562 224.832,211.786 224.609 C 212.005 224.390,212.143 223.806,212.143 223.098 C 212.143 222.440,212.261 221.905,212.417 221.853 C 212.568 221.803,212.742 221.124,212.805 220.345 C 212.873 219.502,213.051 218.852,213.245 218.738 C 213.459 218.613,213.571 218.095,213.571 217.233 C 213.571 216.382,213.697 215.792,213.929 215.561 C 214.151 215.339,214.286 214.754,214.286 214.014 C 214.286 213.273,214.421 212.688,214.643 212.466 C 214.862 212.247,215.000 211.663,215.000 210.955 C 215.000 210.266,215.116 209.763,215.287 209.706 C 215.463 209.647,215.612 208.947,215.671 207.900 C 215.742 206.647,215.856 206.190,216.098 206.190 C 216.343 206.190,216.429 205.824,216.429 204.778 C 216.429 203.575,216.499 203.343,216.905 203.214 C 217.309 203.086,217.381 202.854,217.381 201.676 C 217.381 200.663,217.477 200.252,217.738 200.152 C 217.991 200.055,218.095 199.660,218.095 198.800 C 218.095 198.037,218.228 197.452,218.452 197.228 C 218.680 197.000,218.810 196.413,218.810 195.604 C 218.810 194.697,218.911 194.298,219.167 194.200 C 219.429 194.099,219.524 193.686,219.524 192.652 C 219.524 191.618,219.619 191.205,219.881 191.104 C 220.138 191.006,220.238 190.604,220.238 189.670 C 220.238 188.903,220.350 188.336,220.512 188.282 C 220.663 188.231,220.838 187.553,220.900 186.774 C 220.968 185.931,221.146 185.280,221.341 185.167 C 221.554 185.042,221.667 184.523,221.667 183.662 C 221.667 182.810,221.793 182.221,222.024 181.990 C 222.245 181.769,222.381 181.185,222.381 180.459 C 222.381 179.814,222.488 179.286,222.619 179.286 C 222.750 179.286,222.857 179.125,222.857 178.929 C 222.857 178.732,222.964 178.571,223.095 178.571 C 223.227 178.571,223.333 177.945,223.333 177.168 C 223.333 176.141,223.429 175.729,223.690 175.628 C 223.943 175.531,224.048 175.136,224.048 174.276 C 224.048 173.514,224.181 172.928,224.405 172.704 C 224.601 172.508,224.762 171.926,224.762 171.412 L 224.762 170.476 250.722 170.476 C 273.578 170.476,276.698 170.433,276.819 170.119 C 276.908 169.886,277.279 169.762,277.890 169.762 C 278.501 169.762,278.872 169.638,278.962 169.405 C 279.037 169.208,279.358 169.048,279.676 169.048 C 279.993 169.048,280.315 168.887,280.390 168.690 C 280.465 168.494,280.760 168.333,281.044 168.333 C 281.328 168.333,281.738 168.146,281.955 167.917 C 282.171 167.688,282.784 167.126,283.317 166.669 C 283.850 166.211,284.286 165.703,284.286 165.538 C 284.286 165.373,284.446 165.238,284.643 165.238 C 284.839 165.238,285.000 165.077,285.000 164.881 C 285.000 164.685,285.161 164.524,285.357 164.524 C 285.554 164.524,285.714 164.375,285.714 164.192 C 285.714 164.010,285.875 163.799,286.071 163.723 C 286.268 163.648,286.429 163.315,286.429 162.984 C 286.429 162.607,286.562 162.381,286.786 162.381 C 287.021 162.381,287.143 162.146,287.143 161.692 C 287.143 161.300,287.296 160.944,287.500 160.866 C 287.743 160.773,287.857 160.393,287.857 159.678 C 287.857 158.827,287.948 158.603,288.333 158.502 C 288.788 158.384,288.810 158.178,288.810 153.953 C 288.810 149.786,288.782 149.511,288.333 149.230 C 287.978 149.009,287.857 148.675,287.857 147.919 C 287.857 147.176,287.762 146.905,287.500 146.905 C 287.262 146.905,287.143 146.667,287.143 146.190 C 287.143 145.714,287.024 145.476,286.786 145.476 C 286.562 145.476,286.429 145.250,286.429 144.873 C 286.429 144.542,286.268 144.209,286.071 144.134 C 285.875 144.058,285.714 143.844,285.714 143.658 C 285.714 143.471,285.554 143.257,285.357 143.181 C 285.161 143.106,285.000 142.895,285.000 142.713 C 285.000 142.530,284.891 142.381,284.758 142.381 C 284.625 142.381,284.054 141.899,283.489 141.310 C 282.925 140.720,282.349 140.238,282.209 140.238 C 282.070 140.238,281.894 140.077,281.819 139.881 C 281.743 139.685,281.418 139.524,281.095 139.524 C 280.717 139.524,280.454 139.354,280.357 139.048 C 280.263 138.751,279.997 138.571,279.652 138.571 C 279.348 138.571,279.037 138.411,278.962 138.214 C 278.872 137.981,278.501 137.857,277.894 137.857 C 277.357 137.857,276.838 137.706,276.667 137.500 C 276.407 137.188,273.633 137.139,254.554 137.115 C 242.555 137.100,232.926 137.039,233.155 136.979 C 233.491 136.891,233.571 136.604,233.571 135.484 C 233.571 134.472,233.668 134.062,233.929 133.962 C 234.186 133.863,234.286 133.460,234.286 132.524 C 234.286 131.432,234.362 131.198,234.762 131.071 C 235.166 130.943,235.238 130.711,235.238 129.533 C 235.238 128.520,235.334 128.109,235.595 128.009 C 235.839 127.916,235.952 127.535,235.952 126.813 C 235.952 126.231,236.073 125.714,236.221 125.665 C 236.368 125.615,236.544 124.990,236.611 124.276 C 236.678 123.561,236.842 122.906,236.976 122.820 C 237.110 122.733,237.269 122.037,237.331 121.272 C 237.397 120.449,237.576 119.803,237.769 119.691 C 237.981 119.567,238.095 119.054,238.095 118.228 C 238.095 117.317,238.197 116.917,238.452 116.819 C 238.709 116.720,238.810 116.318,238.810 115.390 C 238.810 114.462,238.910 114.060,239.167 113.962 C 239.430 113.861,239.524 113.445,239.524 112.388 C 239.524 111.271,239.603 110.952,239.881 110.952 C 240.151 110.952,240.238 110.661,240.238 109.762 C 240.238 109.107,240.345 108.571,240.476 108.571 C 240.607 108.571,240.714 108.411,240.714 108.214 C 240.714 108.018,240.821 107.857,240.952 107.857 C 241.083 107.857,241.190 107.367,241.190 106.769 C 241.190 106.119,241.334 105.536,241.548 105.323 C 241.746 105.125,241.905 104.543,241.905 104.014 C 241.905 103.485,242.063 102.902,242.262 102.704 C 242.458 102.508,242.619 101.935,242.619 101.431 C 242.619 100.928,242.733 100.478,242.873 100.431 C 243.012 100.385,243.190 99.869,243.268 99.284 C 243.347 98.700,243.554 98.078,243.729 97.903 C 243.904 97.728,244.048 97.122,244.048 96.556 C 244.048 95.861,244.164 95.483,244.405 95.390 C 244.650 95.296,244.762 94.914,244.762 94.174 C 244.762 93.374,244.854 93.095,245.119 93.095 C 245.382 93.095,245.476 92.820,245.476 92.049 C 245.476 91.339,245.591 90.959,245.833 90.866 C 246.069 90.776,246.190 90.403,246.190 89.769 C 246.190 89.127,246.348 88.652,246.667 88.333 C 246.998 88.002,247.143 87.540,247.143 86.811 C 247.143 86.101,247.258 85.721,247.500 85.628 C 247.734 85.539,247.857 85.168,247.857 84.557 C 247.857 83.946,247.981 83.575,248.214 83.485 C 248.426 83.404,248.571 83.047,248.571 82.610 C 248.571 82.203,248.732 81.710,248.929 81.514 C 249.125 81.317,249.286 80.889,249.286 80.561 C 249.286 80.234,249.446 79.805,249.643 79.609 C 249.839 79.412,250.000 78.896,250.000 78.461 C 250.000 77.978,250.139 77.617,250.357 77.533 C 250.602 77.439,250.714 77.056,250.714 76.317 C 250.714 75.517,250.807 75.238,251.071 75.238 C 251.307 75.238,251.429 75.003,251.429 74.549 C 251.429 74.157,251.582 73.802,251.786 73.723 C 252.019 73.634,252.143 73.263,252.143 72.654 C 252.143 71.922,252.245 71.695,252.619 71.598 C 252.961 71.508,253.095 71.273,253.095 70.762 C 253.095 70.350,253.245 69.993,253.452 69.914 C 253.649 69.839,253.810 69.506,253.810 69.174 C 253.810 68.843,253.912 68.571,254.037 68.571 C 254.162 68.571,254.334 68.196,254.420 67.738 C 254.506 67.280,254.671 66.905,254.786 66.905 C 254.900 66.905,255.062 66.483,255.144 65.967 C 255.227 65.451,255.442 64.973,255.623 64.903 C 255.804 64.834,255.952 64.452,255.952 64.055 C 255.952 63.572,256.071 63.333,256.310 63.333 C 256.508 63.333,256.667 63.122,256.667 62.857 C 256.667 62.595,256.772 62.381,256.900 62.381 C 257.029 62.381,257.199 62.121,257.279 61.803 C 257.359 61.485,257.575 61.167,257.760 61.096 C 257.944 61.025,258.095 60.722,258.095 60.422 C 258.095 60.122,258.310 59.743,258.571 59.579 C 258.833 59.416,259.048 59.026,259.048 58.714 C 259.048 58.402,259.208 58.085,259.405 58.009 C 259.601 57.934,259.762 57.612,259.762 57.295 C 259.762 56.977,259.923 56.656,260.119 56.581 C 260.315 56.505,260.476 56.279,260.476 56.079 C 260.476 55.878,260.581 55.714,260.710 55.714 C 260.838 55.714,261.009 55.454,261.088 55.136 C 261.168 54.818,261.384 54.500,261.569 54.429 C 261.754 54.359,261.905 54.183,261.905 54.038 C 261.905 53.894,262.065 53.615,262.262 53.418 C 262.458 53.222,262.619 52.855,262.619 52.602 C 262.619 52.349,262.780 52.143,262.976 52.143 C 263.173 52.143,263.333 51.982,263.333 51.786 C 263.333 51.589,263.494 51.429,263.690 51.429 C 263.887 51.429,264.048 51.275,264.048 51.087 C 264.048 50.900,264.262 50.678,264.524 50.595 C 264.786 50.512,265.000 50.330,265.000 50.190 C 265.000 50.050,265.268 49.687,265.595 49.384 C 265.923 49.081,266.190 48.720,266.190 48.583 C 266.190 48.446,266.300 48.333,266.435 48.333 C 266.569 48.333,267.161 47.851,267.751 47.262 C 268.340 46.673,268.926 46.190,269.054 46.190 C 269.181 46.190,269.286 46.030,269.286 45.833 C 269.286 45.610,269.511 45.476,269.888 45.476 C 270.220 45.476,270.553 45.315,270.628 45.119 C 270.704 44.923,270.918 44.762,271.104 44.762 C 271.291 44.762,271.505 44.601,271.581 44.405 C 271.658 44.204,272.012 44.048,272.389 44.048 C 272.759 44.048,273.207 43.902,273.385 43.724 C 273.563 43.546,274.342 43.348,275.116 43.284 C 275.890 43.220,276.565 43.044,276.615 42.893 C 276.735 42.532,278.742 42.536,278.863 42.898 C 278.916 43.057,279.617 43.224,280.490 43.285 C 281.443 43.352,282.096 43.517,282.214 43.720 C 282.319 43.900,282.656 44.048,282.963 44.048 C 283.269 44.048,283.582 44.208,283.658 44.405 C 283.733 44.601,284.066 44.762,284.397 44.762 C 284.774 44.762,285.000 44.896,285.000 45.119 C 285.000 45.317,285.212 45.476,285.476 45.476 C 285.741 45.476,285.952 45.635,285.952 45.833 C 285.952 46.030,286.060 46.190,286.190 46.190 C 286.474 46.190,287.381 47.061,287.381 47.333 C 287.381 47.437,287.698 47.785,288.085 48.106 C 288.472 48.428,288.794 48.824,288.799 48.988 C 288.805 49.152,288.959 49.286,289.141 49.286 C 289.323 49.286,289.539 49.554,289.622 49.881 C 289.704 50.208,289.876 50.476,290.005 50.476 C 290.133 50.476,290.238 50.640,290.238 50.841 C 290.238 51.041,290.399 51.267,290.595 51.342 C 290.792 51.418,290.952 51.735,290.952 52.047 C 290.952 52.360,291.167 52.749,291.429 52.912 C 291.690 53.076,291.905 53.455,291.905 53.755 C 291.905 54.055,292.065 54.362,292.262 54.438 C 292.458 54.513,292.619 54.835,292.619 55.152 C 292.619 55.469,292.780 55.791,292.976 55.866 C 293.210 55.956,293.333 56.327,293.333 56.938 C 293.333 57.549,293.457 57.920,293.690 58.009 C 293.924 58.099,294.048 58.470,294.048 59.081 C 294.048 59.691,294.171 60.062,294.405 60.152 C 294.654 60.248,294.762 60.636,294.762 61.437 C 294.762 62.140,294.900 62.723,295.119 62.942 C 295.355 63.178,295.476 63.772,295.476 64.692 C 295.476 65.494,295.616 66.284,295.807 66.556 C 296.008 66.843,296.171 67.857,296.224 69.149 C 296.282 70.566,296.410 71.303,296.608 71.369 C 296.785 71.428,296.905 71.892,296.905 72.520 C 296.905 73.254,297.049 73.715,297.381 74.048 C 297.646 74.312,297.857 74.841,297.857 75.238 C 297.857 75.714,297.976 75.952,298.214 75.952 C 298.452 75.952,298.571 76.190,298.571 76.667 C 298.571 77.143,298.690 77.381,298.929 77.381 C 299.125 77.381,299.286 77.545,299.286 77.746 C 299.286 77.946,299.446 78.172,299.643 78.247 C 299.839 78.323,300.000 78.516,300.000 78.678 C 300.000 79.121,302.040 81.190,302.476 81.190 C 302.686 81.190,302.857 81.351,302.857 81.548 C 302.857 81.744,303.059 81.905,303.306 81.905 C 303.554 81.905,303.810 82.117,303.879 82.381 C 303.961 82.696,304.203 82.857,304.595 82.857 C 304.921 82.857,305.249 83.018,305.324 83.214 C 305.400 83.411,305.721 83.571,306.038 83.571 C 306.356 83.571,306.677 83.732,306.753 83.929 C 306.846 84.172,307.227 84.286,307.943 84.286 C 308.660 84.286,309.040 84.400,309.134 84.643 C 309.330 85.154,316.406 85.166,317.344 84.657 C 317.692 84.469,318.378 84.249,318.869 84.170 C 319.360 84.091,319.762 83.924,319.762 83.799 C 319.762 83.674,320.078 83.571,320.464 83.571 C 320.851 83.571,321.252 83.435,321.357 83.269 C 321.462 83.102,321.842 82.837,322.202 82.679 C 322.563 82.521,322.857 82.282,322.857 82.148 C 322.857 82.014,323.018 81.905,323.214 81.905 C 323.411 81.905,323.571 81.744,323.571 81.548 C 323.571 81.349,323.783 81.190,324.048 81.190 C 324.312 81.190,324.524 81.032,324.524 80.833 C 324.524 80.637,324.685 80.476,324.881 80.476 C 325.077 80.476,325.238 80.315,325.238 80.119 C 325.238 79.923,325.399 79.762,325.595 79.762 C 325.792 79.762,325.952 79.601,325.952 79.405 C 325.952 79.208,326.113 79.048,326.310 79.048 C 326.506 79.048,326.667 78.898,326.667 78.716 C 326.667 78.534,326.827 78.323,327.024 78.247 C 327.220 78.172,327.381 77.992,327.381 77.848 C 327.381 77.703,327.542 77.424,327.738 77.228 C 327.935 77.031,328.095 76.676,328.095 76.437 C 328.095 76.198,328.256 75.942,328.452 75.866 C 328.649 75.791,328.810 75.450,328.810 75.110 C 328.810 74.769,328.970 74.329,329.167 74.133 C 329.396 73.903,329.524 73.314,329.524 72.483 C 329.524 71.493,329.607 71.190,329.881 71.190 C 330.180 71.190,330.238 70.688,330.238 68.095 C 330.238 65.503,330.180 65.000,329.881 65.000 C 329.586 65.000,329.524 64.563,329.524 62.493 C 329.524 60.483,329.453 59.958,329.167 59.848 C 328.894 59.743,328.810 59.296,328.810 57.951 C 328.810 56.545,328.738 56.190,328.452 56.190 C 328.174 56.190,328.095 55.872,328.095 54.754 C 328.095 53.698,328.001 53.282,327.738 53.181 C 327.481 53.083,327.381 52.681,327.381 51.753 C 327.381 50.824,327.281 50.423,327.024 50.324 C 326.781 50.231,326.667 49.850,326.667 49.134 C 326.667 48.457,326.549 48.035,326.338 47.954 C 326.157 47.885,325.941 47.406,325.859 46.890 C 325.776 46.374,325.603 45.952,325.473 45.952 C 325.344 45.952,325.238 45.628,325.238 45.231 C 325.238 44.809,325.090 44.452,324.881 44.372 C 324.685 44.296,324.522 44.005,324.521 43.725 C 324.515 42.839,324.242 42.143,323.901 42.143 C 323.683 42.143,323.571 41.860,323.571 41.310 C 323.571 40.728,323.464 40.476,323.214 40.476 C 322.978 40.476,322.857 40.240,322.857 39.779 C 322.857 39.395,322.696 38.921,322.500 38.724 C 322.304 38.528,322.143 38.196,322.143 37.986 C 322.143 37.776,321.982 37.542,321.786 37.467 C 321.589 37.392,321.429 37.070,321.429 36.753 C 321.429 36.435,321.268 36.114,321.071 36.038 C 320.875 35.963,320.714 35.642,320.714 35.324 C 320.714 35.007,320.554 34.685,320.357 34.610 C 320.161 34.535,320.000 34.278,320.000 34.039 C 320.000 33.801,319.839 33.445,319.643 33.248 C 319.446 33.052,319.286 32.776,319.286 32.636 C 319.286 32.496,319.125 32.381,318.929 32.381 C 318.692 32.381,318.571 32.145,318.571 31.683 C 318.571 31.206,318.428 30.939,318.119 30.841 C 317.870 30.762,317.600 30.433,317.519 30.111 C 317.438 29.788,317.267 29.524,317.138 29.524 C 317.010 29.524,316.905 29.385,316.905 29.215 C 316.905 29.045,316.588 28.643,316.201 28.322 C 315.813 28.001,315.492 27.604,315.486 27.440 C 315.481 27.277,315.315 27.143,315.119 27.143 C 314.902 27.143,314.762 26.922,314.762 26.580 C 314.762 25.987,312.460 23.333,311.945 23.333 C 311.792 23.333,311.667 23.173,311.667 22.976 C 311.667 22.780,311.506 22.619,311.310 22.619 C 311.113 22.619,310.952 22.458,310.952 22.262 C 310.952 22.065,310.792 21.905,310.595 21.905 C 310.399 21.905,310.238 21.744,310.238 21.548 C 310.238 21.351,310.077 21.190,309.881 21.190 C 309.685 21.190,309.524 21.030,309.524 20.833 C 309.524 20.637,309.370 20.476,309.183 20.476 C 308.995 20.476,308.774 20.262,308.690 20.000 C 308.607 19.738,308.386 19.524,308.198 19.524 C 308.011 19.524,307.857 19.417,307.857 19.286 C 307.857 19.155,307.750 19.048,307.619 19.048 C 307.488 19.048,307.167 18.833,306.905 18.571 C 306.643 18.310,306.268 18.095,306.071 18.095 C 305.875 18.095,305.714 17.935,305.714 17.738 C 305.714 17.542,305.565 17.381,305.383 17.381 C 305.200 17.381,304.989 17.220,304.914 17.024 C 304.839 16.827,304.532 16.662,304.234 16.657 C 303.931 16.651,303.432 16.335,303.106 15.942 C 302.785 15.554,302.288 15.238,302.001 15.238 C 301.714 15.238,301.418 15.077,301.342 14.881 C 301.264 14.677,300.909 14.524,300.511 14.524 C 300.018 14.524,299.782 14.386,299.693 14.048 C 299.611 13.732,299.368 13.571,298.976 13.571 C 298.651 13.571,298.323 13.411,298.247 13.214 C 298.172 13.018,297.850 12.857,297.533 12.857 C 297.215 12.857,296.894 12.696,296.819 12.500 C 296.729 12.266,296.358 12.143,295.747 12.143 C 295.136 12.143,294.765 12.019,294.676 11.786 C 294.583 11.543,294.202 11.429,293.485 11.429 C 292.769 11.429,292.388 11.314,292.295 11.071 C 292.201 10.827,291.818 10.714,291.079 10.714 C 290.279 10.714,290.000 10.622,290.000 10.357 C 290.000 10.071,289.643 10.000,288.214 10.000 C 287.183 10.000,286.429 9.899,286.429 9.762 C 286.429 9.607,283.333 9.524,277.619 9.524 C 271.905 9.524,268.810 9.607,268.810 9.762 " stroke="none" fill="#000000" fill-rule="evenodd"></path></g></svg>
